<?xml version="1.0" standalone="no"?>
<!DOCTYPE svg PUBLIC "-//W3C//DTD SVG 20010904//EN"
 "http://www.w3.org/TR/2001/REC-SVG-20010904/DTD/svg10.dtd">
<svg version="1.0" xmlns="http://www.w3.org/2000/svg"
 width="275.000000pt" height="276.000000pt" viewBox="0 0 275.000000 276.000000"
 preserveAspectRatio="xMidYMid meet">

<g transform="translate(0.000000,276.000000) scale(0.100000,-0.100000)"
fill="#000000" stroke="none">
<path d="M370 2703 c-150 -163 -279 -442 -341 -738 -32 -147 -34 -446 -5 -600
36 -198 126 -432 216 -566 175 -259 426 -470 757 -638 139 -71 343 -161 364
-161 9 0 79 29 155 64 77 34 153 69 169 77 223 101 497 295 659 467 189 200
331 482 383 762 22 119 24 409 4 520 -40 225 -156 517 -271 685 -35 52 -148
175 -160 175 -9 0 -71 -92 -100 -149 -26 -52 -28 -62 -36 -168 -4 -46 -11 -83
-17 -83 -6 0 -24 11 -41 24 -61 46 -249 127 -263 113 -2 -2 13 -21 32 -42 72
-76 208 -407 178 -435 -4 -5 -45 -10 -91 -12 -46 -1 -86 -5 -91 -8 -4 -3 -26
-32 -49 -65 -23 -33 -54 -75 -68 -92 l-27 -33 174 0 c96 0 179 -4 185 -8 19
-12 1 -273 -26 -369 -76 -281 -325 -566 -657 -753 l-41 -23 -64 39 c-322 193
-543 458 -618 739 -28 107 -47 354 -28 366 7 5 89 9 182 9 142 0 167 2 163 14
-3 8 -34 53 -68 100 l-63 86 -93 0 c-90 0 -93 1 -93 23 0 84 97 301 180 405
28 34 47 62 43 62 -4 0 -42 -11 -83 -24 -84 -26 -149 -56 -197 -92 -44 -34
-53 -30 -53 20 0 24 -4 68 -10 97 -11 58 -75 197 -113 242 l-24 28 -53 -58z"/>
</g>
</svg>
